# xmcd CD database file
#
# Track frame offsets:
#	150
#	19442
#	34307
#	50110
#	66457
#	82655
#	98177
#	113682
#	131357
#	147087
#	162225
#	179127
#	193152
#	208740
#	227652
#	243767
#	258390
#	272700
#	289067
#	305142
#
# Disc length: 4314 seconds
#
# Revision: 0
# Processed by: cddbd v1.5.1PL0 Copyright (c) Steve Scherf et al.
# Submitted via: CDex 1.50
#
DISCID=2e10d814
DTITLE=## - Die deutschen TopHits 1993
DYEAR=1993
DGENRE=Schlager
TTITLE0=Roland Kaiser - Ganz oder gar nicht
TTITLE1=Kristina Bach - Er schenkte mir den Eifelturm
TTITLE2=Wolfgang Petry - Du bist ein Wunder
TTITLE3=Claudia Jung - Das Dunkel der Nacht
TTITLE4=Tom Astor - Junger Adler '93 (Ein Lied fuer (m)einen Sohn)
TTITLE5=Matthias Reim - Kuessen oder so
TTITLE6=Nicole - Wenn ich dich nicht lieben wuerde
TTITLE7=Brunner and Brunner - Schenk' mir diese eine Nacht
TTITLE8=Peggy March - Du hast noch 5 Minuten Zeit
TTITLE9=G.G. Anderson - Wird sind auf der Erde um gluecklich zu sein
TTITLE10=Andrea Juergens - Eleni hiess das Maedchen
TTITLE11=Bernd Cluever - Mit dir ist das anders
TTITLE12=Nicki -  Was waerst du ohne mi
TTITLE13=Andy Borg - Die Sonne und du
TTITLE14=IBO - Mit offenen Karten
TTITLE15=Ireen Sheer - Das gewisse Etwas
TTITLE16=Flippers - Tanzen unterm Regenbogen
TTITLE17=Petra Frey - Prinzessin Blue
TTITLE18=Gaby Baginsky - Wer hat dir das kuessen beigebracht
TTITLE19=David Hasselhoff and Gwen - Wir zwei allein
EXTD=YEAR: 1993
EXTT0=
EXTT1=
EXTT2=
EXTT3=
EXTT4=
EXTT5=
EXTT6=
EXTT7=
EXTT8=
EXTT9=
EXTT10=
EXTT11=
EXTT12=
EXTT13=
EXTT14=
EXTT15=
EXTT16=
EXTT17=
EXTT18=
EXTT19=
PLAYORDER=
